<svg xmlns="http://www.w3.org/2000/svg" xmlns:xlink="http://www.w3.org/1999/xlink" width="500" zoomAndPan="magnify" viewBox="0 0 375 374.999991" height="500" preserveAspectRatio="xMidYMid meet" version="1.0"><defs><g/></defs><rect x="-37.5" width="450" fill="#ffffff" y="-37.499999" height="449.999989" fill-opacity="1"/><rect x="-37.5" width="450" fill="#000000" y="-37.499999" height="449.999989" fill-opacity="1"/><g fill="#ffffff" fill-opacity="0.302"><g transform="translate(74.990839, 282.164761)"><g><path d="M 4.875 0 L 88.046875 -184.546875 L 180.96875 0 L 127.03125 0 L 102.34375 -54.578125 L 33.140625 -54.578125 L 8.453125 0 Z M 34.765625 -57.828125 L 101.046875 -57.828125 L 67.90625 -130.609375 Z M 34.765625 -57.828125 "/></g></g></g><g fill="#ffffff" fill-opacity="0.502"><g transform="translate(60.631668, 267.805592)"><g><path d="M 4.875 0 L 88.046875 -184.546875 L 180.96875 0 L 127.03125 0 L 102.34375 -54.578125 L 33.140625 -54.578125 L 8.453125 0 Z M 34.765625 -57.828125 L 101.046875 -57.828125 L 67.90625 -130.609375 Z M 34.765625 -57.828125 "/></g></g></g><g fill="#ffffff" fill-opacity="1"><g transform="translate(46.2725, 253.446422)"><g><path d="M 4.875 0 L 88.046875 -184.546875 L 180.96875 0 L 127.03125 0 L 102.34375 -54.578125 L 33.140625 -54.578125 L 8.453125 0 Z M 34.765625 -57.828125 L 101.046875 -57.828125 L 67.90625 -130.609375 Z M 34.765625 -57.828125 "/></g></g></g><g fill="#ffffff" fill-opacity="0.302"><g transform="translate(164.994805, 274.088024)"><g><path d="M 87.953125 2.71875 C 76.722656 2.71875 66.222656 0.679688 56.453125 -3.390625 C 46.679688 -7.460938 38.039062 -13.070312 30.53125 -20.21875 C 23.019531 -27.363281 17.179688 -35.640625 13.015625 -45.046875 C 8.859375 -54.460938 6.78125 -64.597656 6.78125 -75.453125 C 6.78125 -86.316406 8.859375 -96.453125 13.015625 -105.859375 C 17.179688 -115.265625 23.019531 -123.539062 30.53125 -130.6875 C 38.039062 -137.84375 46.679688 -143.5 56.453125 -147.65625 C 66.222656 -151.820312 76.722656 -153.90625 87.953125 -153.90625 C 99.523438 -153.90625 109.335938 -151.773438 117.390625 -147.515625 C 125.441406 -143.265625 131.59375 -137.882812 135.84375 -131.375 C 140.101562 -124.863281 142.234375 -118.078125 142.234375 -111.015625 C 142.234375 -105.222656 140.691406 -99.703125 137.609375 -94.453125 C 134.535156 -89.210938 129.832031 -86.59375 123.5 -86.59375 C 119.519531 -86.59375 115.71875 -88.3125 112.09375 -91.75 C 108.476562 -95.1875 106.671875 -99.4375 106.671875 -104.5 C 106.671875 -104.5 107.753906 -105.269531 109.921875 -106.8125 C 112.097656 -108.351562 114.453125 -111.566406 116.984375 -116.453125 C 118.078125 -118.617188 119.03125 -121.285156 119.84375 -124.453125 C 120.65625 -127.617188 120.742188 -130.921875 120.109375 -134.359375 C 119.472656 -137.796875 117.347656 -140.960938 113.734375 -143.859375 C 107.398438 -148.566406 99.707031 -150.648438 90.65625 -150.109375 C 80.519531 -149.378906 72.554688 -145.894531 66.765625 -139.65625 C 60.984375 -133.414062 56.867188 -124.863281 54.421875 -114 C 51.984375 -103.144531 50.765625 -90.390625 50.765625 -75.734375 C 50.765625 -61.796875 51.9375 -49.304688 54.28125 -38.265625 C 56.632812 -27.234375 60.523438 -18.457031 65.953125 -11.9375 C 71.390625 -5.425781 78.722656 -1.71875 87.953125 -0.8125 C 90.660156 -0.445312 93.914062 -0.535156 97.71875 -1.078125 C 101.519531 -1.628906 105.5 -2.804688 109.65625 -4.609375 L 109.65625 -62.96875 L 91.75 -62.96875 L 91.75 -65.953125 L 141.140625 -65.953125 L 141.140625 -2.984375 L 118.890625 -2.984375 C 114.003906 -1.171875 108.984375 0.226562 103.828125 1.21875 C 98.671875 2.21875 93.378906 2.71875 87.953125 2.71875 Z M 87.953125 2.71875 "/></g></g></g><g fill="#ffffff" fill-opacity="0.502"><g transform="translate(152.998725, 262.091946)"><g><path d="M 87.953125 2.71875 C 76.722656 2.71875 66.222656 0.679688 56.453125 -3.390625 C 46.679688 -7.460938 38.039062 -13.070312 30.53125 -20.21875 C 23.019531 -27.363281 17.179688 -35.640625 13.015625 -45.046875 C 8.859375 -54.460938 6.78125 -64.597656 6.78125 -75.453125 C 6.78125 -86.316406 8.859375 -96.453125 13.015625 -105.859375 C 17.179688 -115.265625 23.019531 -123.539062 30.53125 -130.6875 C 38.039062 -137.84375 46.679688 -143.5 56.453125 -147.65625 C 66.222656 -151.820312 76.722656 -153.90625 87.953125 -153.90625 C 99.523438 -153.90625 109.335938 -151.773438 117.390625 -147.515625 C 125.441406 -143.265625 131.59375 -137.882812 135.84375 -131.375 C 140.101562 -124.863281 142.234375 -118.078125 142.234375 -111.015625 C 142.234375 -105.222656 140.691406 -99.703125 137.609375 -94.453125 C 134.535156 -89.210938 129.832031 -86.59375 123.5 -86.59375 C 119.519531 -86.59375 115.71875 -88.3125 112.09375 -91.75 C 108.476562 -95.1875 106.671875 -99.4375 106.671875 -104.5 C 106.671875 -104.5 107.753906 -105.269531 109.921875 -106.8125 C 112.097656 -108.351562 114.453125 -111.566406 116.984375 -116.453125 C 118.078125 -118.617188 119.03125 -121.285156 119.84375 -124.453125 C 120.65625 -127.617188 120.742188 -130.921875 120.109375 -134.359375 C 119.472656 -137.796875 117.347656 -140.960938 113.734375 -143.859375 C 107.398438 -148.566406 99.707031 -150.648438 90.65625 -150.109375 C 80.519531 -149.378906 72.554688 -145.894531 66.765625 -139.65625 C 60.984375 -133.414062 56.867188 -124.863281 54.421875 -114 C 51.984375 -103.144531 50.765625 -90.390625 50.765625 -75.734375 C 50.765625 -61.796875 51.9375 -49.304688 54.28125 -38.265625 C 56.632812 -27.234375 60.523438 -18.457031 65.953125 -11.9375 C 71.390625 -5.425781 78.722656 -1.71875 87.953125 -0.8125 C 90.660156 -0.445312 93.914062 -0.535156 97.71875 -1.078125 C 101.519531 -1.628906 105.5 -2.804688 109.65625 -4.609375 L 109.65625 -62.96875 L 91.75 -62.96875 L 91.75 -65.953125 L 141.140625 -65.953125 L 141.140625 -2.984375 L 118.890625 -2.984375 C 114.003906 -1.171875 108.984375 0.226562 103.828125 1.21875 C 98.671875 2.21875 93.378906 2.71875 87.953125 2.71875 Z M 87.953125 2.71875 "/></g></g></g><g fill="#ffffff" fill-opacity="1"><g transform="translate(141.002645, 250.095867)"><g><path d="M 87.953125 2.71875 C 76.722656 2.71875 66.222656 0.679688 56.453125 -3.390625 C 46.679688 -7.460938 38.039062 -13.070312 30.53125 -20.21875 C 23.019531 -27.363281 17.179688 -35.640625 13.015625 -45.046875 C 8.859375 -54.460938 6.78125 -64.597656 6.78125 -75.453125 C 6.78125 -86.316406 8.859375 -96.453125 13.015625 -105.859375 C 17.179688 -115.265625 23.019531 -123.539062 30.53125 -130.6875 C 38.039062 -137.84375 46.679688 -143.5 56.453125 -147.65625 C 66.222656 -151.820312 76.722656 -153.90625 87.953125 -153.90625 C 99.523438 -153.90625 109.335938 -151.773438 117.390625 -147.515625 C 125.441406 -143.265625 131.59375 -137.882812 135.84375 -131.375 C 140.101562 -124.863281 142.234375 -118.078125 142.234375 -111.015625 C 142.234375 -105.222656 140.691406 -99.703125 137.609375 -94.453125 C 134.535156 -89.210938 129.832031 -86.59375 123.5 -86.59375 C 119.519531 -86.59375 115.71875 -88.3125 112.09375 -91.75 C 108.476562 -95.1875 106.671875 -99.4375 106.671875 -104.5 C 106.671875 -104.5 107.753906 -105.269531 109.921875 -106.8125 C 112.097656 -108.351562 114.453125 -111.566406 116.984375 -116.453125 C 118.078125 -118.617188 119.03125 -121.285156 119.84375 -124.453125 C 120.65625 -127.617188 120.742188 -130.921875 120.109375 -134.359375 C 119.472656 -137.796875 117.347656 -140.960938 113.734375 -143.859375 C 107.398438 -148.566406 99.707031 -150.648438 90.65625 -150.109375 C 80.519531 -149.378906 72.554688 -145.894531 66.765625 -139.65625 C 60.984375 -133.414062 56.867188 -124.863281 54.421875 -114 C 51.984375 -103.144531 50.765625 -90.390625 50.765625 -75.734375 C 50.765625 -61.796875 51.9375 -49.304688 54.28125 -38.265625 C 56.632812 -27.234375 60.523438 -18.457031 65.953125 -11.9375 C 71.390625 -5.425781 78.722656 -1.71875 87.953125 -0.8125 C 90.660156 -0.445312 93.914062 -0.535156 97.71875 -1.078125 C 101.519531 -1.628906 105.5 -2.804688 109.65625 -4.609375 L 109.65625 -62.96875 L 91.75 -62.96875 L 91.75 -65.953125 L 141.140625 -65.953125 L 141.140625 -2.984375 L 118.890625 -2.984375 C 114.003906 -1.171875 108.984375 0.226562 103.828125 1.21875 C 98.671875 2.21875 93.378906 2.71875 87.953125 2.71875 Z M 87.953125 2.71875 "/></g></g></g></svg>