<?xml version="1.0" encoding="UTF-8"?>
<svg width="32" height="32" viewBox="0 0 32 32" fill="none" xmlns="http://www.w3.org/2000/svg">
  <path d="M4 0L16 24L28 0H22L17 10H15L10 0H4Z" fill="white"/>
  <path d="M16 2C14.5 2 13.1 1.6 11.8 0.8C10.5 0 9.5 -0.8 8.8 -1.8C8.1 -2.8 7.7 -3.9 7.7 -5.1C7.7 -6.3 8.1 -7.4 8.8 -8.4C9.5 -9.4 10.5 -10.2 11.8 -11C13.1 -11.8 14.5 -12.2 16 -12.2C17.8 -12.2 19.2 -11.8 20.3 -11C21.4 -10.2 22.2 -9.4 22.7 -8.4C23.2 -7.4 23.5 -6.3 23.5 -5.1C23.5 -4.1 23.2 -3.2 22.7 -2.4C22.2 -1.6 21.4 -1 20.3 -0.6C19.2 -0.2 17.8 0 16 0C15.2 0 14.5 0.1 13.9 0.2C13.3 0.3 12.8 0.5 12.4 0.8L12.4 -5.1L14.7 -5.1L14.7 -5.4L22.6 -5.4L22.6 -0.3L19 -0.3C18.2 0 17.4 0.2 16.6 0.3C15.8 0.4 15 0.5 16 0.5Z" fill="white"/>
</svg>